<svg xmlns="http://www.w3.org/2000/svg" viewBox="0 0 1200 300" width="1200" height="300" role="img" aria-label="Junghyeon Ahn - Unreal Engine Client Developer"><defs><style>.s{font-family:-apple-system,BlinkMacSystemFont,'Segoe UI','Noto Sans KR','Noto Sans CJK KR',Roboto,'Malgun Gothic','Apple SD Gothic Neo',sans-serif}.m{font-family:ui-monospace,SFMono-Regular,'SF Mono',Menlo,Consolas,monospace}</style><radialGradient id="g0" cx="0.5" cy="0.5" r="0.5"><stop offset="0%" stop-color="#4CC2FF" stop-opacity="0.22"/><stop offset="100%" stop-color="#4CC2FF" stop-opacity="0"/></radialGradient><radialGradient id="g1" cx="0.5" cy="0.5" r="0.5"><stop offset="0%" stop-color="#7B8CF7" stop-opacity="0.17"/><stop offset="100%" stop-color="#7B8CF7" stop-opacity="0"/></radialGradient><linearGradient id="fadeTop" x1="0" y1="0" x2="0" y2="1"><stop offset="0%" stop-color="#0A0E17" stop-opacity="1"/><stop offset="72%" stop-color="#0A0E17" stop-opacity="0.72"/><stop offset="100%" stop-color="#0A0E17" stop-opacity="0"/></linearGradient><linearGradient id="fadeL" x1="0" y1="0" x2="1" y2="0"><stop offset="0%" stop-color="#0A0E17"/><stop offset="100%" stop-color="#0A0E17" stop-opacity="0"/></linearGradient><linearGradient id="fadeR" x1="0" y1="0" x2="1" y2="0"><stop offset="0%" stop-color="#0A0E17" stop-opacity="0"/><stop offset="100%" stop-color="#0A0E17"/></linearGradient><linearGradient id="rule" x1="0" y1="0" x2="1" y2="0"><stop offset="0%" stop-color="#4CC2FF"/><stop offset="100%" stop-color="#7B8CF7" stop-opacity="0.3"/></linearGradient><linearGradient id="streak" x1="0" y1="0" x2="1" y2="0"><stop offset="0%" stop-color="#4CC2FF" stop-opacity="0"/><stop offset="45%" stop-color="#4CC2FF" stop-opacity="0.30"/><stop offset="100%" stop-color="#4CC2FF" stop-opacity="0"/></linearGradient></defs><rect width="1200" height="300" fill="#0A0E17"/><ellipse cx="235" cy="140" rx="580" ry="300" fill="url(#g0)"/><ellipse cx="975" cy="128" rx="440" ry="300" fill="url(#g1)"/><g stroke-linecap="round"><line x1="0" y1="150.5" x2="1200" y2="150.5" stroke="#1C2942" stroke-width="1" opacity="0.15"/><line x1="0" y1="152.1" x2="1200" y2="152.1" stroke="#1C2942" stroke-width="1" opacity="0.18"/><line x1="0" y1="154.9" x2="1200" y2="154.9" stroke="#1C2942" stroke-width="1" opacity="0.22"/><line x1="0" y1="158.7" x2="1200" y2="158.7" stroke="#1C2942" stroke-width="1" opacity="0.25"/><line x1="0" y1="163.8" x2="1200" y2="163.8" stroke="#1C2942" stroke-width="1" opacity="0.28"/><line x1="0" y1="170.1" x2="1200" y2="170.1" stroke="#1C2942" stroke-width="1" opacity="0.32"/><line x1="0" y1="177.5" x2="1200" y2="177.5" stroke="#1C2942" stroke-width="1" opacity="0.35"/><line x1="0" y1="186.2" x2="1200" y2="186.2" stroke="#1C2942" stroke-width="1" opacity="0.38"/><line x1="0" y1="196.1" x2="1200" y2="196.1" stroke="#1C2942" stroke-width="1" opacity="0.41"/><line x1="0" y1="207.2" x2="1200" y2="207.2" stroke="#1C2942" stroke-width="1" opacity="0.45"/><line x1="0" y1="219.6" x2="1200" y2="219.6" stroke="#1C2942" stroke-width="1" opacity="0.48"/><line x1="0" y1="233.2" x2="1200" y2="233.2" stroke="#1C2942" stroke-width="1" opacity="0.51"/><line x1="0" y1="248.0" x2="1200" y2="248.0" stroke="#1C2942" stroke-width="1" opacity="0.54"/><line x1="0" y1="264.1" x2="1200" y2="264.1" stroke="#1C2942" stroke-width="1" opacity="0.57"/><line x1="0" y1="281.4" x2="1200" y2="281.4" stroke="#1C2942" stroke-width="1" opacity="0.61"/><line x1="0" y1="300.0" x2="1200" y2="300.0" stroke="#1C2942" stroke-width="1" opacity="0.64"/><line x1="600" y1="150" x2="-1000" y2="300" stroke="#1C2942" stroke-width="1" opacity="0.40"/><line x1="600" y1="150" x2="-895" y2="300" stroke="#1C2942" stroke-width="1" opacity="0.40"/><line x1="600" y1="150" x2="-790" y2="300" stroke="#1C2942" stroke-width="1" opacity="0.40"/><line x1="600" y1="150" x2="-685" y2="300" stroke="#1C2942" stroke-width="1" opacity="0.40"/><line x1="600" y1="150" x2="-580" y2="300" stroke="#1C2942" stroke-width="1" opacity="0.40"/><line x1="600" y1="150" x2="-475" y2="300" stroke="#1C2942" stroke-width="1" opacity="0.40"/><line x1="600" y1="150" x2="-370" y2="300" stroke="#1C2942" stroke-width="1" opacity="0.40"/><line x1="600" y1="150" x2="-265" y2="300" stroke="#1C2942" stroke-width="1" opacity="0.40"/><line x1="600" y1="150" x2="-160" y2="300" stroke="#1C2942" stroke-width="1" opacity="0.40"/><line x1="600" y1="150" x2="-55" y2="300" stroke="#1C2942" stroke-width="1" opacity="0.40"/><line x1="600" y1="150" x2="50" y2="300" stroke="#1C2942" stroke-width="1" opacity="0.40"/><line x1="600" y1="150" x2="155" y2="300" stroke="#1C2942" stroke-width="1" opacity="0.40"/><line x1="600" y1="150" x2="260" y2="300" stroke="#1C2942" stroke-width="1" opacity="0.40"/><line x1="600" y1="150" x2="365" y2="300" stroke="#1C2942" stroke-width="1" opacity="0.40"/><line x1="600" y1="150" x2="470" y2="300" stroke="#1C2942" stroke-width="1" opacity="0.40"/><line x1="600" y1="150" x2="575" y2="300" stroke="#1C2942" stroke-width="1" opacity="0.40"/><line x1="600" y1="150" x2="680" y2="300" stroke="#1C2942" stroke-width="1" opacity="0.40"/><line x1="600" y1="150" x2="785" y2="300" stroke="#1C2942" stroke-width="1" opacity="0.40"/><line x1="600" y1="150" x2="890" y2="300" stroke="#1C2942" stroke-width="1" opacity="0.40"/><line x1="600" y1="150" x2="995" y2="300" stroke="#1C2942" stroke-width="1" opacity="0.40"/><line x1="600" y1="150" x2="1100" y2="300" stroke="#1C2942" stroke-width="1" opacity="0.40"/><line x1="600" y1="150" x2="1205" y2="300" stroke="#1C2942" stroke-width="1" opacity="0.40"/><line x1="600" y1="150" x2="1310" y2="300" stroke="#1C2942" stroke-width="1" opacity="0.40"/><line x1="600" y1="150" x2="1415" y2="300" stroke="#1C2942" stroke-width="1" opacity="0.40"/><line x1="600" y1="150" x2="1520" y2="300" stroke="#1C2942" stroke-width="1" opacity="0.40"/><line x1="600" y1="150" x2="1625" y2="300" stroke="#1C2942" stroke-width="1" opacity="0.40"/><line x1="600" y1="150" x2="1730" y2="300" stroke="#1C2942" stroke-width="1" opacity="0.40"/><line x1="600" y1="150" x2="1835" y2="300" stroke="#1C2942" stroke-width="1" opacity="0.40"/><line x1="600" y1="150" x2="1940" y2="300" stroke="#1C2942" stroke-width="1" opacity="0.40"/><line x1="600" y1="150" x2="2045" y2="300" stroke="#1C2942" stroke-width="1" opacity="0.40"/><line x1="600" y1="150" x2="2150" y2="300" stroke="#1C2942" stroke-width="1" opacity="0.40"/><line x1="600" y1="150" x2="2255" y2="300" stroke="#1C2942" stroke-width="1" opacity="0.40"/></g><rect x="0" y="150" width="1200" height="118" fill="url(#fadeTop)"/><rect x="0" y="0" width="1200" height="150" fill="#0A0E17"/><rect x="0" y="0" width="300" height="300" fill="url(#fadeL)"/><rect x="900" y="0" width="300" height="300" fill="url(#fadeR)"/><rect x="612" y="149" width="528" height="2" fill="url(#streak)"/><ellipse cx="235" cy="150" rx="520" ry="250" fill="url(#g0)" opacity="0.5"/><g><circle cx="163" cy="64" r="1.5" fill="#4CC2FF" opacity="0.3"><animate attributeName="opacity" values="0.3;0.72;0.3" dur="4s" begin="0.0s" repeatCount="indefinite"/></circle><circle cx="298" cy="44" r="1.1" fill="#4CC2FF" opacity="0.22"><animate attributeName="opacity" values="0.22;0.53;0.22" dur="5s" begin="0.4s" repeatCount="indefinite"/></circle><circle cx="441" cy="88" r="1.3" fill="#4CC2FF" opacity="0.18"><animate attributeName="opacity" values="0.18;0.43;0.18" dur="6s" begin="0.8s" repeatCount="indefinite"/></circle><circle cx="520" cy="36" r="1" fill="#4CC2FF" opacity="0.24"><animate attributeName="opacity" values="0.24;0.58;0.24" dur="7s" begin="1.3s" repeatCount="indefinite"/></circle><circle cx="712" cy="58" r="1.4" fill="#4CC2FF" opacity="0.2"><animate attributeName="opacity" values="0.2;0.48;0.2" dur="8s" begin="1.7s" repeatCount="indefinite"/></circle><circle cx="806" cy="96" r="1.1" fill="#4CC2FF" opacity="0.16"><animate attributeName="opacity" values="0.16;0.38;0.16" dur="4s" begin="2.1s" repeatCount="indefinite"/></circle><circle cx="1128" cy="62" r="1.5" fill="#4CC2FF" opacity="0.26"><animate attributeName="opacity" values="0.26;0.62;0.26" dur="5s" begin="2.5s" repeatCount="indefinite"/></circle><circle cx="1064" cy="196" r="1.2" fill="#4CC2FF" opacity="0.2"><animate attributeName="opacity" values="0.2;0.48;0.2" dur="6s" begin="2.9s" repeatCount="indefinite"/></circle><circle cx="128" cy="238" r="1.3" fill="#4CC2FF" opacity="0.18"><animate attributeName="opacity" values="0.18;0.43;0.18" dur="7s" begin="3.4s" repeatCount="indefinite"/></circle><circle cx="352" cy="262" r="1.1" fill="#4CC2FF" opacity="0.15"><animate attributeName="opacity" values="0.15;0.36;0.15" dur="8s" begin="3.8s" repeatCount="indefinite"/></circle><circle cx="690" cy="244" r="1.4" fill="#4CC2FF" opacity="0.17"><animate attributeName="opacity" values="0.17;0.41;0.17" dur="4s" begin="4.2s" repeatCount="indefinite"/></circle><circle cx="884" cy="42" r="1" fill="#4CC2FF" opacity="0.22"><animate attributeName="opacity" values="0.22;0.53;0.22" dur="5s" begin="4.6s" repeatCount="indefinite"/></circle></g><g stroke-linecap="round"><animateTransform attributeName="transform" type="rotate" from="0 958 150" to="360 958 150" dur="72s" repeatCount="indefinite"/><line x1="894.1" y1="169.8" x2="1001.6" y2="117.0" stroke="#1C2942" stroke-width="0.91" opacity="0.17"/><line x1="993.7" y1="232.8" x2="1001.6" y2="117.0" stroke="#1C2942" stroke-width="0.95" opacity="0.21"/><line x1="894.1" y1="169.8" x2="993.7" y2="232.8" stroke="#1C2942" stroke-width="0.97" opacity="0.22"/><line x1="909.8" y1="59.0" x2="1001.6" y2="117.0" stroke="#1C2942" stroke-width="0.99" opacity="0.24"/><line x1="894.1" y1="169.8" x2="909.8" y2="59.0" stroke="#1C2942" stroke-width="1.00" opacity="0.25"/><line x1="1001.6" y1="117.0" x2="1070.9" y2="161.0" stroke="#1C2942" stroke-width="1.05" opacity="0.30"/><line x1="1019.0" y1="53.6" x2="1001.6" y2="117.0" stroke="#1C2942" stroke-width="1.08" opacity="0.32"/><line x1="897.0" y1="246.4" x2="894.1" y2="169.8" stroke="#1C2942" stroke-width="1.09" opacity="0.33"/><line x1="993.7" y1="232.8" x2="1070.9" y2="161.0" stroke="#1C2942" stroke-width="1.11" opacity="0.34"/><line x1="845.1" y1="139.0" x2="894.1" y2="169.8" stroke="#3A5A80" stroke-width="1.11" opacity="0.35"/><line x1="897.0" y1="246.4" x2="993.7" y2="232.8" stroke="#3A5A80" stroke-width="1.13" opacity="0.36"/><line x1="909.8" y1="59.0" x2="1019.0" y2="53.6" stroke="#3A5A80" stroke-width="1.16" opacity="0.39"/><line x1="845.1" y1="139.0" x2="909.8" y2="59.0" stroke="#3A5A80" stroke-width="1.19" opacity="0.41"/><line x1="1006.2" y1="241.0" x2="993.7" y2="232.8" stroke="#3A5A80" stroke-width="1.21" opacity="0.44"/><line x1="1019.0" y1="53.6" x2="1070.9" y2="161.0" stroke="#3A5A80" stroke-width="1.23" opacity="0.45"/><line x1="845.1" y1="139.0" x2="897.0" y2="246.4" stroke="#3A5A80" stroke-width="1.27" opacity="0.49"/><line x1="922.3" y1="67.2" x2="909.8" y2="59.0" stroke="#3A5A80" stroke-width="1.29" opacity="0.50"/><line x1="1006.2" y1="241.0" x2="1070.9" y2="161.0" stroke="#3A5A80" stroke-width="1.31" opacity="0.53"/><line x1="897.0" y1="246.4" x2="1006.2" y2="241.0" stroke="#4CC2FF" stroke-width="1.34" opacity="0.55"/><line x1="922.3" y1="67.2" x2="1019.0" y2="53.6" stroke="#4CC2FF" stroke-width="1.37" opacity="0.58"/><line x1="1021.9" y1="130.2" x2="1070.9" y2="161.0" stroke="#4CC2FF" stroke-width="1.39" opacity="0.59"/><line x1="845.1" y1="139.0" x2="922.3" y2="67.2" stroke="#4CC2FF" stroke-width="1.39" opacity="0.60"/><line x1="1021.9" y1="130.2" x2="1019.0" y2="53.6" stroke="#4CC2FF" stroke-width="1.41" opacity="0.61"/><line x1="914.4" y1="183.0" x2="897.0" y2="246.4" stroke="#4CC2FF" stroke-width="1.42" opacity="0.62"/><line x1="845.1" y1="139.0" x2="914.4" y2="183.0" stroke="#4CC2FF" stroke-width="1.45" opacity="0.64"/><line x1="1006.2" y1="241.0" x2="1021.9" y2="130.2" stroke="#4CC2FF" stroke-width="1.50" opacity="0.69"/><line x1="914.4" y1="183.0" x2="1006.2" y2="241.0" stroke="#4CC2FF" stroke-width="1.51" opacity="0.70"/><line x1="922.3" y1="67.2" x2="1021.9" y2="130.2" stroke="#4CC2FF" stroke-width="1.53" opacity="0.72"/><line x1="914.4" y1="183.0" x2="922.3" y2="67.2" stroke="#4CC2FF" stroke-width="1.55" opacity="0.73"/><line x1="914.4" y1="183.0" x2="1021.9" y2="130.2" stroke="#4CC2FF" stroke-width="1.59" opacity="0.77"/><circle cx="1001.6" cy="117.0" r="1.60" fill="#4CC2FF" opacity="0.25"/><circle cx="894.1" cy="169.8" r="1.66" fill="#4CC2FF" opacity="0.27"/><circle cx="993.7" cy="232.8" r="1.83" fill="#4CC2FF" opacity="0.35"/><circle cx="909.8" cy="59.0" r="1.98" fill="#4CC2FF" opacity="0.42"/><circle cx="1070.9" cy="161.0" r="2.26" fill="#4CC2FF" opacity="0.53"/><circle cx="897.0" cy="246.4" r="2.35" fill="#4CC2FF" opacity="0.57"/><circle cx="1019.0" cy="53.6" r="2.35" fill="#4CC2FF" opacity="0.58"/><circle cx="845.1" cy="139.0" r="2.44" fill="#4CC2FF" opacity="0.62"/><circle cx="1006.2" cy="241.0" r="2.72" fill="#4CC2FF" opacity="0.73"/><circle cx="922.3" cy="67.2" r="2.87" fill="#4CC2FF" opacity="0.80"/><circle cx="1021.9" cy="130.2" r="3.04" fill="#4CC2FF" opacity="0.88"/><circle cx="914.4" cy="183.0" r="3.10" fill="#4CC2FF" opacity="0.90"/></g><g stroke="#4CC2FF" stroke-width="1.2" opacity="0.45" fill="none" stroke-linecap="square"><path d="M836 48 L836 28 L856 28"/><path d="M1060 28 L1080 28 L1080 48"/><path d="M836 252 L836 272 L856 272"/><path d="M1060 272 L1080 272 L1080 252"/></g><rect x="74" y="90" width="46" height="2.5" rx="1.25" fill="url(#rule)"/><text x="74" y="121" class="m" font-size="12.5" font-weight="600" letter-spacing="3.6" fill="#4CC2FF" opacity="0.92">UNREAL ENGINE · C++ · CLIENT</text><text x="74" y="179" class="s" font-size="55" font-weight="700" letter-spacing="-1.3" fill="#E9F0FA">Junghyeon Ahn</text><text x="74" y="210" class="s" font-size="17" font-weight="500" fill="#8496AE">안중현  ·  언리얼 클라이언트 개발자</text><text x="74" y="239" class="m" font-size="12" letter-spacing="0.6" fill="#5A6A82">github.com/Junghyeon0710</text></svg>